<svg width="458" height="147" viewBox="0 0 458 147" fill="none" xmlns="http://www.w3.org/2000/svg">
<g clip-path="url(#clip0_0_4)" filter="url(#filter0_d_0_4)">
<g filter="url(#filter1_d_0_4)">
<path d="M51.0639 57.5355H38.6349C38.4692 56.2595 38.1295 55.1077 37.6158 54.0803C37.102 53.0528 36.4226 52.1745 35.5774 51.4453C34.7322 50.7161 33.7296 50.161 32.5696 49.7798C31.4261 49.3821 30.1584 49.1832 28.7663 49.1832C26.2971 49.1832 24.1676 49.7881 22.3778 50.9979C20.6046 52.2076 19.2375 53.956 18.2763 56.2429C17.3317 58.5298 16.8594 61.2973 16.8594 64.5455C16.8594 67.9261 17.34 70.7599 18.3011 73.0469C19.2789 75.3172 20.6461 77.0324 22.4027 78.1925C24.1759 79.3359 26.2723 79.9077 28.6918 79.9077C30.0507 79.9077 31.2853 79.7337 32.3956 79.3857C33.5225 79.0376 34.5085 78.5322 35.3537 77.8693C36.2154 77.1899 36.9197 76.3696 37.4666 75.4084C38.0301 74.4306 38.4195 73.3286 38.6349 72.1023L51.0639 72.1768C50.8485 74.4306 50.1939 76.6513 49.1001 78.8388C48.023 81.0263 46.5398 83.0232 44.6506 84.8295C42.7614 86.6193 40.4579 88.0445 37.7401 89.1051C35.0388 90.1657 31.9399 90.696 28.4432 90.696C23.8362 90.696 19.7098 89.6851 16.0639 87.6634C12.4347 85.625 9.56771 82.6586 7.46307 78.7642C5.35843 74.8698 4.30611 70.1302 4.30611 64.5455C4.30611 58.9441 5.375 54.1963 7.51278 50.3018C9.65057 46.4074 12.5424 43.4493 16.1882 41.4276C19.834 39.4058 23.919 38.3949 28.4432 38.3949C31.5256 38.3949 34.3759 38.8258 36.9943 39.6875C39.6127 40.5327 41.9162 41.7756 43.9048 43.4162C45.8935 45.0402 47.5092 47.0372 48.7521 49.407C49.995 51.7768 50.7656 54.4863 51.0639 57.5355ZM106.155 64.5455C106.155 70.1468 105.078 74.8946 102.924 78.7891C100.769 82.6835 97.8528 85.6416 94.1738 87.6634C90.5114 89.6851 86.4016 90.696 81.8443 90.696C77.2704 90.696 73.1523 89.6768 69.4899 87.6385C65.8275 85.6001 62.9191 82.642 60.7647 78.7642C58.627 74.8698 57.5581 70.1302 57.5581 64.5455C57.5581 58.9441 58.627 54.1963 60.7647 50.3018C62.9191 46.4074 65.8275 43.4493 69.4899 41.4276C73.1523 39.4058 77.2704 38.3949 81.8443 38.3949C86.4016 38.3949 90.5114 39.4058 94.1738 41.4276C97.8528 43.4493 100.769 46.4074 102.924 50.3018C105.078 54.1963 106.155 58.9441 106.155 64.5455ZM93.5772 64.5455C93.5772 61.2311 93.1049 58.4304 92.1603 56.1435C91.2323 53.8565 89.89 52.1248 88.1333 50.9482C86.3933 49.7715 84.2969 49.1832 81.8443 49.1832C79.4082 49.1832 77.3118 49.7715 75.5552 50.9482C73.7986 52.1248 72.448 53.8565 71.5034 56.1435C70.5753 58.4304 70.1113 61.2311 70.1113 64.5455C70.1113 67.8598 70.5753 70.6605 71.5034 72.9474C72.448 75.2344 73.7986 76.9661 75.5552 78.1428C77.3118 79.3194 79.4082 79.9077 81.8443 79.9077C84.2969 79.9077 86.3933 79.3194 88.1333 78.1428C89.89 76.9661 91.2323 75.2344 92.1603 72.9474C93.1049 70.6605 93.5772 67.8598 93.5772 64.5455ZM156.667 39.0909V90H146.226L125.967 60.6179H125.644V90H113.339V39.0909H123.929L143.964 68.4233H144.387V39.0909H156.667ZM207.731 39.0909V90H197.291L177.032 60.6179H176.708V90H164.404V39.0909H174.993L195.029 68.4233H195.451V39.0909H207.731ZM215.468 90V39.0909H250.965V49.0838H227.773V59.5241H249.151V69.5419H227.773V80.0071H250.965V90H215.468ZM304.882 57.5355H292.453C292.288 56.2595 291.948 55.1077 291.434 54.0803C290.92 53.0528 290.241 52.1745 289.396 51.4453C288.551 50.7161 287.548 50.161 286.388 49.7798C285.244 49.3821 283.977 49.1832 282.585 49.1832C280.115 49.1832 277.986 49.7881 276.196 50.9979C274.423 52.2076 273.056 53.956 272.095 56.2429C271.15 58.5298 270.678 61.2973 270.678 64.5455C270.678 67.9261 271.158 70.7599 272.119 73.0469C273.097 75.3172 274.464 77.0324 276.221 78.1925C277.994 79.3359 280.091 79.9077 282.51 79.9077C283.869 79.9077 285.104 79.7337 286.214 79.3857C287.341 79.0376 288.327 78.5322 289.172 77.8693C290.034 77.1899 290.738 76.3696 291.285 75.4084C291.848 74.4306 292.238 73.3286 292.453 72.1023L304.882 72.1768C304.667 74.4306 304.012 76.6513 302.919 78.8388C301.841 81.0263 300.358 83.0232 298.469 84.8295C296.58 86.6193 294.276 88.0445 291.558 89.1051C288.857 90.1657 285.758 90.696 282.262 90.696C277.655 90.696 273.528 89.6851 269.882 87.6634C266.253 85.625 263.386 82.6586 261.281 78.7642C259.177 74.8698 258.124 70.1302 258.124 64.5455C258.124 58.9441 259.193 54.1963 261.331 50.3018C263.469 46.4074 266.361 43.4493 270.007 41.4276C273.652 39.4058 277.737 38.3949 282.262 38.3949C285.344 38.3949 288.194 38.8258 290.813 39.6875C293.431 40.5327 295.735 41.7756 297.723 43.4162C299.712 45.0402 301.328 47.0372 302.57 49.407C303.813 51.7768 304.584 54.4863 304.882 57.5355ZM310.258 49.0838V39.0909H353.287V49.0838H337.85V90H325.719V49.0838H310.258Z" fill="#051339"/>
</g>
<g clip-path="url(#clip1_0_4)">
<g filter="url(#filter2_d_0_4)">
<path d="M376 42.4607L425 31V99L376 86.7753V42.4607Z" fill="#051339"/>
</g>
<g filter="url(#filter3_d_0_4)">
<path d="M398.435 67.446V83H389.752V55.7273H398.009V60.7344H398.31C398.914 59.0653 399.944 57.7573 401.4 56.8104C402.856 55.8516 404.59 55.3722 406.602 55.3722C408.52 55.3722 410.183 55.8042 411.592 56.6683C413.012 57.5206 414.113 58.7161 414.894 60.255C415.687 61.782 416.078 63.5694 416.066 65.6172V83H407.384V67.3217C407.395 65.8066 407.011 64.6229 406.229 63.7706C405.46 62.9183 404.389 62.4922 403.016 62.4922C402.104 62.4922 401.299 62.6934 400.601 63.0959C399.914 63.4865 399.382 64.0488 399.003 64.7827C398.636 65.5166 398.446 66.4044 398.435 67.446Z" fill="white"/>
</g>
<g filter="url(#filter4_d_0_4)">
<path d="M389.752 83V55.7273H398.435V83H389.752ZM394.102 52.549C392.883 52.549 391.835 52.1465 390.96 51.3416C390.084 50.5249 389.646 49.5424 389.646 48.3942C389.646 47.2578 390.084 46.2872 390.96 45.4822C391.835 44.6655 392.883 44.2571 394.102 44.2571C395.333 44.2571 396.381 44.6655 397.245 45.4822C398.121 46.2872 398.559 47.2578 398.559 48.3942C398.559 49.5424 398.121 50.5249 397.245 51.3416C396.381 52.1465 395.333 52.549 394.102 52.549Z" fill="#FFFF00"/>
</g>
</g>
</g>
<defs>
<filter id="filter0_d_0_4" x="-3" y="0" width="465" height="155" filterUnits="userSpaceOnUse" color-interpolation-filters="sRGB">
<feFlood flood-opacity="0" result="BackgroundImageFix"/>
<feColorMatrix in="SourceAlpha" type="matrix" values="0 0 0 0 0 0 0 0 0 0 0 0 0 0 0 0 0 0 127 0" result="hardAlpha"/>
<feOffset dy="4"/>
<feGaussianBlur stdDeviation="2"/>
<feComposite in2="hardAlpha" operator="out"/>
<feColorMatrix type="matrix" values="0 0 0 0 0 0 0 0 0 0 0 0 0 0 0 0 0 0 0.25 0"/>
<feBlend mode="normal" in2="BackgroundImageFix" result="effect1_dropShadow_0_4"/>
<feBlend mode="normal" in="SourceGraphic" in2="effect1_dropShadow_0_4" result="shape"/>
</filter>
<filter id="filter1_d_0_4" x="0.306152" y="38.3949" width="356.981" height="60.3011" filterUnits="userSpaceOnUse" color-interpolation-filters="sRGB">
<feFlood flood-opacity="0" result="BackgroundImageFix"/>
<feColorMatrix in="SourceAlpha" type="matrix" values="0 0 0 0 0 0 0 0 0 0 0 0 0 0 0 0 0 0 127 0" result="hardAlpha"/>
<feOffset dy="4"/>
<feGaussianBlur stdDeviation="2"/>
<feComposite in2="hardAlpha" operator="out"/>
<feColorMatrix type="matrix" values="0 0 0 0 0 0 0 0 0 0 0 0 0 0 0 0 0 0 0.25 0"/>
<feBlend mode="normal" in2="BackgroundImageFix" result="effect1_dropShadow_0_4"/>
<feBlend mode="normal" in="SourceGraphic" in2="effect1_dropShadow_0_4" result="shape"/>
</filter>
<filter id="filter2_d_0_4" x="372" y="31" width="57" height="76" filterUnits="userSpaceOnUse" color-interpolation-filters="sRGB">
<feFlood flood-opacity="0" result="BackgroundImageFix"/>
<feColorMatrix in="SourceAlpha" type="matrix" values="0 0 0 0 0 0 0 0 0 0 0 0 0 0 0 0 0 0 127 0" result="hardAlpha"/>
<feOffset dy="4"/>
<feGaussianBlur stdDeviation="2"/>
<feComposite in2="hardAlpha" operator="out"/>
<feColorMatrix type="matrix" values="0 0 0 0 0 0 0 0 0 0 0 0 0 0 0 0 0 0 0.25 0"/>
<feBlend mode="normal" in2="BackgroundImageFix" result="effect1_dropShadow_0_4"/>
<feBlend mode="normal" in="SourceGraphic" in2="effect1_dropShadow_0_4" result="shape"/>
</filter>
<filter id="filter3_d_0_4" x="385.752" y="55.3722" width="34.3318" height="35.6278" filterUnits="userSpaceOnUse" color-interpolation-filters="sRGB">
<feFlood flood-opacity="0" result="BackgroundImageFix"/>
<feColorMatrix in="SourceAlpha" type="matrix" values="0 0 0 0 0 0 0 0 0 0 0 0 0 0 0 0 0 0 127 0" result="hardAlpha"/>
<feOffset dy="4"/>
<feGaussianBlur stdDeviation="2"/>
<feComposite in2="hardAlpha" operator="out"/>
<feColorMatrix type="matrix" values="0 0 0 0 0 0 0 0 0 0 0 0 0 0 0 0 0 0 0.25 0"/>
<feBlend mode="normal" in2="BackgroundImageFix" result="effect1_dropShadow_0_4"/>
<feBlend mode="normal" in="SourceGraphic" in2="effect1_dropShadow_0_4" result="shape"/>
</filter>
<filter id="filter4_d_0_4" x="385.646" y="44.2571" width="16.9133" height="46.7429" filterUnits="userSpaceOnUse" color-interpolation-filters="sRGB">
<feFlood flood-opacity="0" result="BackgroundImageFix"/>
<feColorMatrix in="SourceAlpha" type="matrix" values="0 0 0 0 0 0 0 0 0 0 0 0 0 0 0 0 0 0 127 0" result="hardAlpha"/>
<feOffset dy="4"/>
<feGaussianBlur stdDeviation="2"/>
<feComposite in2="hardAlpha" operator="out"/>
<feColorMatrix type="matrix" values="0 0 0 0 0 0 0 0 0 0 0 0 0 0 0 0 0 0 0.25 0"/>
<feBlend mode="normal" in2="BackgroundImageFix" result="effect1_dropShadow_0_4"/>
<feBlend mode="normal" in="SourceGraphic" in2="effect1_dropShadow_0_4" result="shape"/>
</filter>
<clipPath id="clip0_0_4">
<rect width="457" height="147" fill="white" transform="translate(1)"/>
</clipPath>
<clipPath id="clip1_0_4">
<rect width="61" height="74" fill="white" transform="translate(369 29)"/>
</clipPath>
</defs>
</svg>
