<svg width="467" height="128" viewBox="0 0 467 128" fill="none" xmlns="http://www.w3.org/2000/svg">
<g clip-path="url(#clip0_0_10)">
<g filter="url(#filter0_d_0_10)">
<path d="M66.4879 58.8544H54.9467C54.7929 57.6695 54.4774 56.6 54.0004 55.6459C53.5233 54.6919 52.8924 53.8763 52.1076 53.1992C51.3228 52.5221 50.3918 52.0066 49.3146 51.6527C48.2528 51.2834 47.0756 51.0987 45.783 51.0987C43.4902 51.0987 41.5128 51.6604 39.8509 52.7837C38.2043 53.9071 36.9348 55.5305 36.0423 57.6541C35.1651 59.7777 34.7266 62.3475 34.7266 65.3636C34.7266 68.5028 35.1728 71.1342 36.0653 73.2578C36.9732 75.366 38.2428 76.9587 39.8739 78.0359C41.5205 79.0977 43.4671 79.6286 45.7138 79.6286C46.9756 79.6286 48.122 79.467 49.1531 79.1438C50.1995 78.8207 51.1151 78.3513 51.8999 77.7358C52.7 77.1049 53.3541 76.3432 53.8619 75.4506C54.3851 74.5427 54.7467 73.5194 54.9467 72.3807L66.4879 72.4499C66.2879 74.5427 65.68 76.6048 64.6644 78.636C63.6642 80.6673 62.2869 82.5215 60.5327 84.1989C58.7784 85.8608 56.6394 87.1842 54.1158 88.169C51.6075 89.1539 48.7299 89.6463 45.483 89.6463C41.205 89.6463 37.3733 88.7076 33.9879 86.8303C30.6179 84.9375 27.9557 82.183 26.0014 78.5668C24.0471 74.9505 23.07 70.5495 23.07 65.3636C23.07 60.1624 24.0625 55.7537 26.0476 52.1374C28.0327 48.5212 30.7179 45.7744 34.1033 43.897C37.4888 42.0196 41.282 41.081 45.483 41.081C48.3452 41.081 50.992 41.4811 53.4233 42.2812C55.8546 43.066 57.9936 44.2202 59.8402 45.7436C61.6868 47.2517 63.1871 49.1059 64.3413 51.3065C65.4954 53.507 66.2109 56.023 66.4879 58.8544ZM117.644 65.3636C117.644 70.5649 116.644 74.9736 114.644 78.5898C112.643 82.2061 109.935 84.9529 106.519 86.8303C103.118 88.7076 99.3015 89.6463 95.0697 89.6463C90.8225 89.6463 86.9986 88.6999 83.5977 86.8072C80.1969 84.9144 77.4963 82.1676 75.4958 78.5668C73.5107 74.9505 72.5182 70.5495 72.5182 65.3636C72.5182 60.1624 73.5107 55.7537 75.4958 52.1374C77.4963 48.5212 80.1969 45.7744 83.5977 43.897C86.9986 42.0196 90.8225 41.081 95.0697 41.081C99.3015 41.081 103.118 42.0196 106.519 43.897C109.935 45.7744 112.643 48.5212 114.644 52.1374C116.644 55.7537 117.644 60.1624 117.644 65.3636ZM105.965 65.3636C105.965 62.286 105.526 59.6854 104.649 57.5618C103.787 55.4382 102.541 53.8301 100.91 52.7376C99.2938 51.645 97.3472 51.0987 95.0697 51.0987C92.8076 51.0987 90.861 51.645 89.2298 52.7376C87.5987 53.8301 86.3445 55.4382 85.4674 57.5618C84.6057 59.6854 84.1748 62.286 84.1748 65.3636C84.1748 68.4413 84.6057 71.0419 85.4674 73.1655C86.3445 75.2891 87.5987 76.8971 89.2298 77.9897C90.861 79.0823 92.8076 79.6286 95.0697 79.6286C97.3472 79.6286 99.2938 79.0823 100.91 77.9897C102.541 76.8971 103.787 75.2891 104.649 73.1655C105.526 71.0419 105.965 68.4413 105.965 65.3636ZM164.548 41.7273V89H154.853L136.041 61.7166H135.741V89H124.315V41.7273H134.148L152.753 68.9645H153.145V41.7273H164.548ZM211.965 41.7273V89H202.27L183.458 61.7166H183.158V89H171.732V41.7273H181.565L200.17 68.9645H200.562V41.7273H211.965ZM219.149 89V41.7273H252.111V51.0064H230.575V60.701H250.426V70.0032H230.575V79.7209H252.111V89H219.149ZM302.176 58.8544H290.635C290.481 57.6695 290.166 56.6 289.689 55.6459C289.212 54.6919 288.581 53.8763 287.796 53.1992C287.011 52.5221 286.08 52.0066 285.003 51.6527C283.941 51.2834 282.764 51.0987 281.472 51.0987C279.179 51.0987 277.201 51.6604 275.539 52.7837C273.893 53.9071 272.623 55.5305 271.731 57.6541C270.854 59.7777 270.415 62.3475 270.415 65.3636C270.415 68.5028 270.861 71.1342 271.754 73.2578C272.662 75.366 273.931 76.9587 275.562 78.0359C277.209 79.0977 279.156 79.6286 281.402 79.6286C282.664 79.6286 283.811 79.467 284.842 79.1438C285.888 78.8207 286.804 78.3513 287.588 77.7358C288.389 77.1049 289.043 76.3432 289.55 75.4506C290.074 74.5427 290.435 73.5194 290.635 72.3807L302.176 72.4499C301.976 74.5427 301.369 76.6048 300.353 78.636C299.353 80.6673 297.975 82.5215 296.221 84.1989C294.467 85.8608 292.328 87.1842 289.804 88.169C287.296 89.1539 284.418 89.6463 281.171 89.6463C276.893 89.6463 273.062 88.7076 269.676 86.8303C266.306 84.9375 263.644 82.183 261.69 78.5668C259.736 74.9505 258.758 70.5495 258.758 65.3636C258.758 60.1624 259.751 55.7537 261.736 52.1374C263.721 48.5212 266.406 45.7744 269.792 43.897C273.177 42.0196 276.97 41.081 281.171 41.081C284.034 41.081 286.68 41.4811 289.112 42.2812C291.543 43.066 293.682 44.2202 295.529 45.7436C297.375 47.2517 298.876 49.1059 300.03 51.3065C301.184 53.507 301.899 56.023 302.176 58.8544ZM307.168 51.0064V41.7273H347.124V51.0064H332.789V89H321.525V51.0064H307.168Z" fill="white"/>
</g>
<g clip-path="url(#clip1_0_10)">
<g filter="url(#filter1_d_0_10)">
<path d="M371 43.4607L420 32V100L371 87.7753V43.4607Z" fill="white"/>
</g>
<g filter="url(#filter2_d_0_10)">
<path d="M393.435 68.446V84H384.752V56.7273H393.009V61.7344H393.31C393.914 60.0653 394.944 58.7573 396.4 57.8104C397.856 56.8516 399.59 56.3722 401.602 56.3722C403.52 56.3722 405.183 56.8042 406.592 57.6683C408.012 58.5206 409.113 59.7161 409.894 61.255C410.687 62.782 411.078 64.5694 411.066 66.6172V84H402.384V68.3217C402.395 66.8066 402.011 65.6229 401.229 64.7706C400.46 63.9183 399.389 63.4922 398.016 63.4922C397.104 63.4922 396.299 63.6934 395.601 64.0959C394.914 64.4865 394.382 65.0488 394.003 65.7827C393.636 66.5166 393.446 67.4044 393.435 68.446Z" fill="#051339"/>
</g>
<g filter="url(#filter3_d_0_10)">
<path d="M384.752 84V56.7273H393.435V84H384.752ZM389.102 53.549C387.883 53.549 386.835 53.1465 385.96 52.3416C385.084 51.5249 384.646 50.5424 384.646 49.3942C384.646 48.2578 385.084 47.2872 385.96 46.4822C386.835 45.6655 387.883 45.2571 389.102 45.2571C390.333 45.2571 391.381 45.6655 392.245 46.4822C393.121 47.2872 393.559 48.2578 393.559 49.3942C393.559 50.5424 393.121 51.5249 392.245 52.3416C391.381 53.1465 390.333 53.549 389.102 53.549Z" fill="#FFFF00"/>
</g>
</g>
</g>
<defs>
<filter id="filter0_d_0_10" x="19.0699" y="41.0809" width="332.054" height="56.5654" filterUnits="userSpaceOnUse" color-interpolation-filters="sRGB">
<feFlood flood-opacity="0" result="BackgroundImageFix"/>
<feColorMatrix in="SourceAlpha" type="matrix" values="0 0 0 0 0 0 0 0 0 0 0 0 0 0 0 0 0 0 127 0" result="hardAlpha"/>
<feOffset dy="4"/>
<feGaussianBlur stdDeviation="2"/>
<feComposite in2="hardAlpha" operator="out"/>
<feColorMatrix type="matrix" values="0 0 0 0 0 0 0 0 0 0 0 0 0 0 0 0 0 0 0.25 0"/>
<feBlend mode="normal" in2="BackgroundImageFix" result="effect1_dropShadow_0_10"/>
<feBlend mode="normal" in="SourceGraphic" in2="effect1_dropShadow_0_10" result="shape"/>
</filter>
<filter id="filter1_d_0_10" x="367" y="32" width="57" height="76" filterUnits="userSpaceOnUse" color-interpolation-filters="sRGB">
<feFlood flood-opacity="0" result="BackgroundImageFix"/>
<feColorMatrix in="SourceAlpha" type="matrix" values="0 0 0 0 0 0 0 0 0 0 0 0 0 0 0 0 0 0 127 0" result="hardAlpha"/>
<feOffset dy="4"/>
<feGaussianBlur stdDeviation="2"/>
<feComposite in2="hardAlpha" operator="out"/>
<feColorMatrix type="matrix" values="0 0 0 0 0 0 0 0 0 0 0 0 0 0 0 0 0 0 0.25 0"/>
<feBlend mode="normal" in2="BackgroundImageFix" result="effect1_dropShadow_0_10"/>
<feBlend mode="normal" in="SourceGraphic" in2="effect1_dropShadow_0_10" result="shape"/>
</filter>
<filter id="filter2_d_0_10" x="380.752" y="56.3722" width="34.3318" height="35.6278" filterUnits="userSpaceOnUse" color-interpolation-filters="sRGB">
<feFlood flood-opacity="0" result="BackgroundImageFix"/>
<feColorMatrix in="SourceAlpha" type="matrix" values="0 0 0 0 0 0 0 0 0 0 0 0 0 0 0 0 0 0 127 0" result="hardAlpha"/>
<feOffset dy="4"/>
<feGaussianBlur stdDeviation="2"/>
<feComposite in2="hardAlpha" operator="out"/>
<feColorMatrix type="matrix" values="0 0 0 0 0 0 0 0 0 0 0 0 0 0 0 0 0 0 0.25 0"/>
<feBlend mode="normal" in2="BackgroundImageFix" result="effect1_dropShadow_0_10"/>
<feBlend mode="normal" in="SourceGraphic" in2="effect1_dropShadow_0_10" result="shape"/>
</filter>
<filter id="filter3_d_0_10" x="380.646" y="45.2571" width="16.9133" height="46.7429" filterUnits="userSpaceOnUse" color-interpolation-filters="sRGB">
<feFlood flood-opacity="0" result="BackgroundImageFix"/>
<feColorMatrix in="SourceAlpha" type="matrix" values="0 0 0 0 0 0 0 0 0 0 0 0 0 0 0 0 0 0 127 0" result="hardAlpha"/>
<feOffset dy="4"/>
<feGaussianBlur stdDeviation="2"/>
<feComposite in2="hardAlpha" operator="out"/>
<feColorMatrix type="matrix" values="0 0 0 0 0 0 0 0 0 0 0 0 0 0 0 0 0 0 0.25 0"/>
<feBlend mode="normal" in2="BackgroundImageFix" result="effect1_dropShadow_0_10"/>
<feBlend mode="normal" in="SourceGraphic" in2="effect1_dropShadow_0_10" result="shape"/>
</filter>
<clipPath id="clip0_0_10">
<rect width="467" height="128" fill="white"/>
</clipPath>
<clipPath id="clip1_0_10">
<rect width="61" height="73" fill="white" transform="translate(364 30)"/>
</clipPath>
</defs>
</svg>
